<?xml version="1.0" encoding="utf-8" ?>
<svg baseProfile="tiny" height="189" version="1.2" width="266" xmlns="http://www.w3.org/2000/svg" xmlns:ev="http://www.w3.org/2001/xml-events" xmlns:xlink="http://www.w3.org/1999/xlink"><defs /><path d="M 130,6 L 128,8 L 127,8 L 127,9 L 126,10 L 126,12 L 125,13 L 125,14 L 126,15 L 126,17 L 125,18 L 122,18 L 119,15 L 119,14 L 117,12 L 116,12 L 115,11 L 105,11 L 104,12 L 102,12 L 101,13 L 99,13 L 98,14 L 97,14 L 96,15 L 95,15 L 94,16 L 93,16 L 92,17 L 91,17 L 90,18 L 89,18 L 88,19 L 87,19 L 86,20 L 85,20 L 83,22 L 82,22 L 81,23 L 80,23 L 79,24 L 78,24 L 77,25 L 76,25 L 75,26 L 74,26 L 73,27 L 72,27 L 71,28 L 70,28 L 69,29 L 68,29 L 67,30 L 66,30 L 65,31 L 64,31 L 63,32 L 61,32 L 60,33 L 59,33 L 58,34 L 55,34 L 54,35 L 54,36 L 57,36 L 59,38 L 59,39 L 64,44 L 65,44 L 67,46 L 67,47 L 69,49 L 71,49 L 72,50 L 75,50 L 76,51 L 76,52 L 77,53 L 77,54 L 78,55 L 78,56 L 79,57 L 80,57 L 81,58 L 82,58 L 83,59 L 86,59 L 88,61 L 88,62 L 90,64 L 91,64 L 92,65 L 93,65 L 94,66 L 95,66 L 96,67 L 101,67 L 102,68 L 105,68 L 106,69 L 106,70 L 107,71 L 107,72 L 108,73 L 108,74 L 112,78 L 113,78 L 114,79 L 115,79 L 116,80 L 117,80 L 118,81 L 117,82 L 116,82 L 115,83 L 115,84 L 113,86 L 113,88 L 112,89 L 112,94 L 113,95 L 113,96 L 114,97 L 114,98 L 115,99 L 115,100 L 122,107 L 122,108 L 118,112 L 118,114 L 117,115 L 117,118 L 118,119 L 118,121 L 124,127 L 124,128 L 123,129 L 123,130 L 122,131 L 122,138 L 123,139 L 123,140 L 126,143 L 126,144 L 125,145 L 125,146 L 124,147 L 124,153 L 125,154 L 125,155 L 126,156 L 126,157 L 127,158 L 127,165 L 130,168 L 130,180 L 131,181 L 131,182 L 134,182 L 134,181 L 135,180 L 135,168 L 138,165 L 138,158 L 139,157 L 139,156 L 140,155 L 140,154 L 141,153 L 141,147 L 140,146 L 140,145 L 139,144 L 139,143 L 142,140 L 142,139 L 143,138 L 143,131 L 142,130 L 142,129 L 141,128 L 141,127 L 147,121 L 147,120 L 148,119 L 148,115 L 147,114 L 147,112 L 143,108 L 143,107 L 150,100 L 150,99 L 152,97 L 152,95 L 153,94 L 153,89 L 152,88 L 152,86 L 150,84 L 150,83 L 149,82 L 148,82 L 147,81 L 148,80 L 149,80 L 150,79 L 151,79 L 152,78 L 153,78 L 157,74 L 157,73 L 158,72 L 158,71 L 159,70 L 159,69 L 160,68 L 163,68 L 164,67 L 169,67 L 170,66 L 171,66 L 172,65 L 173,65 L 174,64 L 175,64 L 177,62 L 177,61 L 179,59 L 182,59 L 183,58 L 184,58 L 185,57 L 186,57 L 187,56 L 187,55 L 188,54 L 188,53 L 189,52 L 189,51 L 190,50 L 193,50 L 194,49 L 196,49 L 198,47 L 198,46 L 200,44 L 201,44 L 206,39 L 206,38 L 208,36 L 211,36 L 211,35 L 210,34 L 207,34 L 206,33 L 205,33 L 204,32 L 202,32 L 201,31 L 200,31 L 199,30 L 198,30 L 197,29 L 196,29 L 195,28 L 194,28 L 193,27 L 192,27 L 191,26 L 190,26 L 189,25 L 188,25 L 187,24 L 186,24 L 185,23 L 184,23 L 183,22 L 182,22 L 180,20 L 179,20 L 178,19 L 177,19 L 176,18 L 175,18 L 174,17 L 173,17 L 172,16 L 171,16 L 170,15 L 169,15 L 168,14 L 167,14 L 166,13 L 164,13 L 163,12 L 161,12 L 160,11 L 150,11 L 149,12 L 148,12 L 146,14 L 146,15 L 143,18 L 140,18 L 139,17 L 139,16 L 140,15 L 140,12 L 139,11 L 139,9 L 137,7 L 136,7 L 135,6 Z" fill="black" /></svg>